subject01_states
version=1
nRows=5
nColumns=61
inDegrees=yes

# SIMM Motion File Header:
name subject01_states
datacolumns 61
datarows 5
otherdata 1
range 3.18104965 3.18753043
endheader
time	/jointset/ground_pelvis/pelvis_list/value	/jointset/ground_pelvis/pelvis_list/speed	/jointset/ground_pelvis/pelvis_rotation/value	/jointset/ground_pelvis/pelvis_rotation/speed	/jointset/ground_pelvis/pelvis_tilt/value	/jointset/ground_pelvis/pelvis_tilt/speed	/jointset/ground_pelvis/pelvis_tx/value	/jointset/ground_pelvis/pelvis_tx/speed	/jointset/ground_pelvis/pelvis_ty/value	/jointset/ground_pelvis/pelvis_ty/speed	/jointset/ground_pelvis/pelvis_tz/value	/jointset/ground_pelvis/pelvis_tz/speed	/jointset/hip_r/hip_adduction_r/value	/jointset/hip_r/hip_adduction_r/speed	/jointset/hip_r/hip_rotation_r/value	/jointset/hip_r/hip_rotation_r/speed	/jointset/hip_r/hip_flexion_r/value	/jointset/hip_r/hip_flexion_r/speed	/jointset/hip_l/hip_adduction_l/value	/jointset/hip_l/hip_adduction_l/speed	/jointset/hip_l/hip_rotation_l/value	/jointset/hip_l/hip_rotation_l/speed	/jointset/hip_l/hip_flexion_l/value	/jointset/hip_l/hip_flexion_l/speed	/jointset/knee_r/knee_flexion_r/value	/jointset/knee_r/knee_flexion_r/speed	/jointset/knee_l/knee_flexion_l/value	/jointset/knee_l/knee_flexion_l/speed	/jointset/ankle_r/ankle_dorsiflexion_r/value	/jointset/ankle_r/ankle_dorsiflexion_r/speed	/jointset/ankle_l/ankle_dorsiflexion_l/value	/jointset/ankle_l/ankle_dorsiflexion_l/speed	/forceset/hamstrings_r/activation	/forceset/hamstrings_r/fiber_length	/forceset/glut_max_r/activation	/forceset/glut_max_r/fiber_length	/forceset/ilipsoas_r/activation	/forceset/ilipsoas_r/fiber_length	/forceset/vasti_r/activation	/forceset/vasti_r/fiber_length	/forceset/gastroc_r/activation	/forceset/gastroc_r/fiber_length	/forceset/soleus_r/activation	/forceset/soleus_r/fiber_length	/forceset/tibia_r/activation	/forceset/tibia_r/fiber_length	/forceset/hamstrings_l/activation	/forceset/hamstrings_l/fiber_length	/forceset/glut_max_l/activation	/forceset/glut_max_l/fiber_length	/forceset/ilipsoas_l/activation	/forceset/ilipsoas_l/fiber_length	/forceset/vasti_l/activation	/forceset/vasti_l/fiber_length	/forceset/gastroc_l/activation	/forceset/gastroc_l/fiber_length	/forceset/soleus_l/activation	/forceset/soleus_l/fiber_length	/forceset/tibia_l/activation	/forceset/tibia_l/fiber_length
      3.18104965	      0.00000000	     -0.00000000	      0.00000000	      0.00000000	    169.95269405	    244.38283625	      0.78373833	      1.18068184	     -0.92966813	     -0.51808037	      0.00000000	      0.00000000	     -5.89855228	    -64.31975246	    -19.95166206	     27.62298186	      0.27957464	   -179.41825726	      5.89855228	     64.31975246	     19.95166206	    -27.62298186	      0.27957464	   -179.41825726	   -360.05833884	    -22.76202011	   -360.05833884	    -22.76202011	      3.17023843	    -43.75866362	      3.17023843	    -43.75866362	     -0.38411797	      0.12067803	     -0.38411797	      0.09936551	     -0.38411797	      0.11029196	     -0.38411797	      0.07352618	     -0.38411797	      0.06599954	     -0.38411797	      0.04824382	     -0.38411797	      0.07776928	     -0.38411797	      0.12067803	     -0.38411797	      0.09936551	     -0.38411797	      0.11029196	     -0.38411797	      0.07352618	     -0.38411797	      0.06599954	     -0.38411797	      0.04824382	     -0.38411797	      0.07776928
      3.18266985	      0.00000000	     -0.00000000	      0.00000000	      0.00000000	    170.34786657	    243.42210601	      0.78566073	      1.19238255	     -0.93050447	     -0.51429823	      0.00000000	      0.00000000	     -6.00211750	    -63.52156290	    -19.90676366	     27.79820033	     -0.00913842	   -176.96918047	      6.00211750	     63.52156290	     19.90676366	    -27.79820033	     -0.00913842	   -176.96918047	   -360.09629928	    -24.09797507	   -360.09629928	    -24.09797507	      3.09951465	    -43.54453649	      3.09951465	    -43.54453649	     -0.38432657	      0.12053652	     -0.38432657	      0.09925541	     -0.38432657	      0.11045424	     -0.38432657	      0.07354395	     -0.38432657	      0.06593778	     -0.38432657	      0.04818999	     -0.38432657	      0.07782638	     -0.38432657	      0.12053652	     -0.38432657	      0.09925541	     -0.38432657	      0.11045424	     -0.38432657	      0.07354395	     -0.38432657	      0.06593778	     -0.38432657	      0.04818999	     -0.38432657	      0.07782638
      3.18429004	      0.00000000	     -0.00000000	      0.00000000	      0.00000000	    170.74146187	    242.43601964	      0.78760215	      1.20415750	     -0.93133462	     -0.51044466	      0.00000000	      0.00000000	     -6.10438162	    -62.71378460	    -19.86159241	     27.95976610	     -0.29385597	   -174.48668291	      6.10438162	     62.71378460	     19.86159242	    -27.95976610	     -0.29385597	   -174.48668291	   -360.13642258	    -25.43100912	   -360.13642258	    -25.43100913	      3.02913143	    -43.33872818	      3.02913143	    -43.33872818	     -0.38453517	      0.12039501	     -0.38453517	      0.09914571	     -0.38453517	      0.11061391	     -0.38453517	      0.07356280	     -0.38453517	      0.06587551	     -0.38453517	      0.04813628	     -0.38453517	      0.07788318	     -0.38453517	      0.12039501	     -0.38453517	      0.09914571	     -0.38453517	      0.11061391	     -0.38453517	      0.07356280	     -0.38453517	      0.06587551	     -0.38453517	      0.04813628	     -0.38453517	      0.07788318
      3.18591023	      0.00000000	     -0.00000000	      0.00000000	      0.00000000	    171.13343951	    241.42536472	      0.78956270	      1.21599929	     -0.93215847	     -0.50651982	      0.00000000	      0.00000000	     -6.20532967	    -61.89708499	    -19.81617061	     28.10745681	     -0.57452631	   -171.97369408	      6.20532967	     61.89708499	     19.81617061	    -28.10745681	     -0.57452631	   -171.97369408	   -360.17870178	    -26.75901139	   -360.17870178	    -26.75901139	      2.95907457	    -43.14167871	      2.95907457	    -43.14167871	     -0.38474377	      0.12025351	     -0.38474377	      0.09903643	     -0.38474377	      0.11077095	     -0.38474377	      0.07358274	     -0.38474377	      0.06581272	     -0.38474377	      0.04808270	     -0.38474377	      0.07793970	     -0.38474377	      0.12025351	     -0.38474377	      0.09903643	     -0.38474377	      0.11077095	     -0.38474377	      0.07358274	     -0.38474377	      0.06581272	     -0.38474377	      0.04808270	     -0.38474377	      0.07793970
      3.18753043	      0.00000000	     -0.00000000	      0.00000000	      0.00000000	    171.52376034	    240.39095988	      0.79154249	      1.22790027	     -0.93297590	     -0.50252403	      0.00000000	      0.00000000	     -6.30494777	    -61.07218635	    -19.77052078	     28.24126494	     -0.85110261	   -169.43345817	      6.30494777	     61.07218635	     19.77052078	    -28.24126494	     -0.85110261	   -169.43345817	   -360.22312566	    -28.07764412	   -360.22312566	    -28.07764412	      2.88932851	    -42.95547747	      2.88932851	    -42.95547747	     -0.38495237	      0.12011202	     -0.38495237	      0.09892756	     -0.38495237	      0.11092537	     -0.38495237	      0.07360376	     -0.38495237	      0.06574942	     -0.38495237	      0.04802926	     -0.38495237	      0.07799594	     -0.38495237	      0.12011202	     -0.38495237	      0.09892756	     -0.38495237	      0.11092537	     -0.38495237	      0.07360376	     -0.38495237	      0.06574942	     -0.38495237	      0.04802926	     -0.38495237	      0.07799594
